<svg xmlns="http://www.w3.org/2000/svg" version="1.1" xmlns:xlink="http://www.w3.org/1999/xlink" xmlns:svgjs="http://svgjs.dev/svgjs" width="1920" height="1080" preserveAspectRatio="none" viewBox="0 0 1920 1080"><g mask="url(&quot;#SvgjsMask1485&quot;)" fill="none"><rect width="1920" height="1080" x="0" y="0" fill="url(&quot;#SvgjsLinearGradient1486&quot;)"></rect><path d="M -737.9973317583269,775 C -642,722 -450,471.2 -257.997331758327,510 C -66,548.8 30,994.6 222.002668241673,969 C 414,943.4 510,459 702.0026682416731,382 C 894,305 990,618.2 1182.002668241673,584 C 1374,549.8 1514.4,138.8 1662.002668241673,211 C 1809.6,283.2 1868.4,798.2 1920,945" stroke="rgba(195, 194, 203, 1)" stroke-width="2"></path><path d="M -483.9296123300811,338 C -387.93,464.8 -195.93,967.6 -3.9296123300811203,972 C 188.07,976.4 284.07,413.4 476.0703876699189,360 C 668.07,306.6 764.07,698 956.0703876699189,705 C 1148.07,712 1244.07,377.4 1436.0703876699188,395 C 1628.07,412.6 1819.28,788.6 1916.0703876699188,793 C 2012.86,797.4 1919.21,492.2 1920,417" stroke="rgba(195, 194, 203, 1)" stroke-width="2"></path><path d="M -191.7252030971519,122 C -95.73,290 96.27,901.6 288.2747969028481,962 C 480.27,1022.4 576.27,476.8 768.274796902848,424 C 960.27,371.2 1056.27,709.8 1248.274796902848,698 C 1440.27,686.2 1536.27,385.2 1728.274796902848,365 C 1920.27,344.8 2169.93,632.2 2208.2747969028483,597 C 2246.62,561.8 1977.65,270.6 1920,189" stroke="rgba(195, 194, 203, 1)" stroke-width="2"></path><path d="M -478.60395325318007,985 C -382.6,813 -190.6,146 1.3960467468199411,125 C 193.4,104 289.4,803 481.39604674681993,880 C 673.4,957 769.4,505.2 961.3960467468199,510 C 1153.4,514.8 1249.4,949.4 1441.39604674682,904 C 1633.4,858.6 1825.68,339.6 1921.39604674682,283 C 2017.12,226.4 1920.28,553.4 1920,621" stroke="rgba(195, 194, 203, 1)" stroke-width="2"></path></g><defs><mask id="SvgjsMask1485"><rect width="1920" height="1080" fill="#ffffff"></rect></mask><linearGradient x1="10.94%" y1="-19.44%" x2="89.06%" y2="119.44%" gradientUnits="userSpaceOnUse" id="SvgjsLinearGradient1486"><stop stop-color="rgba(2, 16, 72, 1)" offset="0"></stop><stop stop-color="rgba(21, 19, 50, 1)" offset="1"></stop></linearGradient></defs></svg>