<svg xmlns="http://www.w3.org/2000/svg" version="1.1" xmlns:xlink="http://www.w3.org/1999/xlink" xmlns:svgjs="http://svgjs.dev/svgjs" width="1920" height="2160" preserveAspectRatio="none" viewBox="0 0 1920 2160"><g mask="url(&quot;#SvgjsMask1219&quot;)" fill="none"><rect width="1920" height="2160" x="0" y="0" fill="url(&quot;#SvgjsLinearGradient1220&quot;)"></rect><path d="M0 72.73C13.28 14.28 46.41 9.5 109.09 0C286.41 -26.87 294.55 0 480 0C720 0 720 0 960 0C1200 0 1200 0 1440 0C1680 0 1800 -120 1920 0C2040 120 1920 240 1920 480C1920 720 1920 720 1920 960C1920 1200 1920 1200 1920 1440C1920 1680 1920 1680 1920 1920C1920 2160 2031.22 2271.22 1920 2400C1823.95 2511.22 1645.6 2484.09 1505.45 2400C1405.6 2340.09 1534.19 2112 1440 2112C1261.47 2112 1200 2256 960 2400C960 2400 960 2400 960 2400C720 2400 720 2400 480 2400C240 2400 120 2520 0 2400C-120 2280 0 2160 0 1920C0 1757.03 -52.31 1732.88 0 1594.07C38.13 1492.88 180.87 1517.03 180.87 1440C180.87 1362.97 38.13 1387.12 0 1285.93C-52.31 1147.12 0 1122.97 0 960C0 720 0 720 0 480C0 276.37 -41.26 254.28 0 72.73" stroke="rgba(255, 255, 255, 1)" stroke-width="2"></path><path d="M480 408C453.38 408 433.55 451.38 433.55 480C433.55 496.73 456.23 498.7 480 498.7C513.74 498.7 548.57 498.9 548.57 480C548.57 453.55 510.89 408 480 408" stroke="rgba(255, 255, 255, 1)" stroke-width="2"></path><path d="M960 979.2C885.83 979.2 788.06 1232.87 788.06 1440C788.06 1533.51 880.33 1580.49 960 1580.49C1026.3 1580.49 1080 1524.05 1080 1440C1080 1223.4 1031.8 979.2 960 979.2" stroke="rgba(255, 255, 255, 1)" stroke-width="2"></path><path d="M0 436.36C13.79 436.36 17.65 466.91 46.45 480C257.65 576 286.21 531.47 480 654.55C664.08 771.47 772.41 778.64 802.19 960C836.89 1171.37 713.69 1203.74 608.96 1440C552.59 1567.17 543.74 1686.86 480 1686.86C416.65 1686.86 444.21 1542.3 354.78 1440C204.21 1267.76 128.41 1311.51 0 1137.78C-48.98 1071.51 0 1048.89 0 960C0 720 0 720 0 480C0 458.18 -9.44 436.36 0 436.36" stroke="rgba(255, 255, 255, 1)" stroke-width="2"></path><path d="M1920 99.31C1889.65 99.31 1817.14 28.88 1817.14 0C1817.14 -20.78 1893.83 -25.26 1920 0C1945.26 24.39 1941.08 99.31 1920 99.31" stroke="rgba(255, 255, 255, 1)" stroke-width="2"></path><path d="M1195.1 960C1245.62 799.5 1295.98 693.33 1440 693.33C1658.43 693.33 1680 826.66 1920 960C1920 960 1920 960 1920 960C1920 1200 1920 1200 1920 1440C1920 1639.15 2028.27 1763.47 1920 1838.3C1788.27 1929.35 1663.43 1744.38 1440 1771.76C1330.09 1785.23 1342.84 1841.43 1253.33 1920C1102.84 2052.1 1109.28 2193.1 960 2193.1C804.21 2193.1 643.2 2043.54 643.2 1920C643.2 1810.41 820.71 1845.84 960 1726.83C1101.61 1605.84 1153.28 1608.7 1205 1440C1270.83 1225.29 1128.12 1172.83 1195.1 960" stroke="rgba(255, 255, 255, 1)" stroke-width="2"></path><path d="M0 1742.22C102 1742.22 266.26 1782.56 306.38 1920C362.26 2111.45 302.28 2227.23 192 2400C149.09 2467.23 27.43 2468.57 0 2400C-68.57 2228.57 0 2160 0 1920C0 1831.11 -51.19 1742.22 0 1742.22" stroke="rgba(255, 255, 255, 1)" stroke-width="2"></path><path d="M1778.18 2400C1778.18 2296.16 1882.73 2102.86 1920 2102.86C1953.64 2102.86 1968 2299.43 1920 2400C1897.09 2448 1778.18 2444.73 1778.18 2400" stroke="rgba(255, 255, 255, 1)" stroke-width="2"></path><path d="M0 871.11C202.75 807.92 259.98 779.73 480 810.39C578.89 824.17 637.81 868.77 637.81 960C637.81 1129.38 609.65 1325.59 480 1331.61C290.74 1340.4 228.51 1166.54 0 989.63C-11.49 980.74 0 974.82 0 960C0 915.56 -37.25 882.72 0 871.11" stroke="rgba(255, 255, 255, 1)" stroke-width="2"></path><path d="M1330 1440C1330 1210.89 1303.29 999.93 1440 960C1598.29 913.77 1735.7 1083.39 1920 1267.69C1975.7 1323.39 1920 1353.85 1920 1440C1920 1511.49 1975.07 1565.16 1920 1582.98C1735.07 1642.81 1651.27 1646.49 1440 1595.29C1356.27 1575 1330 1528.54 1330 1440" stroke="rgba(255, 255, 255, 1)" stroke-width="2"></path><path d="M0 1890.37C17 1890.37 51.06 1898.56 51.06 1920C51.06 1956.23 13.73 2005.71 0 2005.71C-11.8 2005.71 0 1962.86 0 1920C0 1905.18 -8.53 1890.37 0 1890.37" stroke="rgba(255, 255, 255, 1)" stroke-width="2"></path><path d="M883.2 1920C883.2 1893.43 922.01 1873.17 960 1873.17C995.96 1873.17 1031.11 1893.6 1031.11 1920C1031.11 1950.12 996.19 1986.21 960 1986.21C922.23 1986.21 883.2 1949.95 883.2 1920" stroke="rgba(255, 255, 255, 1)" stroke-width="2"></path></g><defs><mask id="SvgjsMask1219"><rect width="1920" height="2160" fill="#ffffff"></rect></mask><linearGradient x1="0%" y1="50%" x2="100%" y2="50%" gradientUnits="userSpaceOnUse" id="SvgjsLinearGradient1220"><stop stop-color="rgba(23, 16, 73, 1)" offset="0"></stop><stop stop-color="rgba(22, 20, 50, 1)" offset="1"></stop></linearGradient></defs></svg>